<svg preserveAspectRatio="none" overflow="visible" style="display: block;" width="36" height="36" viewBox="0 0 36 36" fill="none" xmlns="http://www.w3.org/2000/svg">
<g id="Arrow">
<path id="Chevron" d="M21.2379 27.3516C21.4805 27.5836 21.7758 27.7102 22.1133 27.7102C22.8199 27.7102 23.3684 27.1617 23.3684 26.4656C23.3684 26.1176 23.2313 25.8012 22.9887 25.5586L15.6059 18.3445L22.9887 11.1516C23.2313 10.909 23.3684 10.582 23.3684 10.2445C23.3684 9.54844 22.8199 9 22.1133 9C21.7758 9 21.4805 9.12656 21.2484 9.35859L13.043 17.3742C12.7477 17.6484 12.6 17.9859 12.6 18.3551C12.6 18.7242 12.7477 19.0406 13.0324 19.3254L21.2379 27.3516Z" fill="#3478F6"/>
</g>
</svg>
